<svg width="57" height="28" viewBox="0 0 57 28" fill="none" xmlns="http://www.w3.org/2000/svg">
<rect x="0.5" y="0.5" width="56" height="27" rx="3.5" fill="#F2F2F2"/>
<path d="M5.37642 19V8.81818H6.91264V13.6804H7.03693L11.3075 8.81818H13.2415L9.13494 13.402L13.2564 19H11.407L8.11577 14.451L6.91264 15.8331V19H5.37642ZM14.6733 19V8.81818H21.0568V10.1406H16.2095V13.2429H20.7237V14.5604H16.2095V17.6776H21.1165V19H14.6733ZM28.6621 11.4929C28.6091 11.0223 28.3903 10.6577 28.0059 10.3991C27.6214 10.1373 27.1375 10.0064 26.5542 10.0064C26.1365 10.0064 25.7753 10.0727 25.4703 10.2053C25.1654 10.3345 24.9284 10.5135 24.7594 10.7422C24.5937 10.9676 24.5108 11.2244 24.5108 11.5128C24.5108 11.7547 24.5672 11.9635 24.6799 12.1392C24.7959 12.3149 24.9467 12.4624 25.1323 12.5817C25.3212 12.6977 25.5234 12.7955 25.7388 12.875C25.9542 12.9512 26.1614 13.0142 26.3603 13.0639L27.3546 13.3224C27.6794 13.402 28.0125 13.5097 28.3539 13.6456C28.6953 13.7815 29.0118 13.9605 29.3034 14.1825C29.5951 14.4046 29.8304 14.6797 30.0094 15.0078C30.1917 15.3359 30.2828 15.7287 30.2828 16.1861C30.2828 16.7628 30.1337 17.2749 29.8354 17.7223C29.5404 18.1697 29.1112 18.5227 28.5478 18.7812C27.9876 19.0398 27.3098 19.169 26.5144 19.169C25.7521 19.169 25.0925 19.0481 24.5357 18.8061C23.9789 18.5642 23.543 18.2211 23.2282 17.777C22.9133 17.3295 22.7393 16.7992 22.7061 16.1861H24.2473C24.2772 16.554 24.3965 16.8606 24.6053 17.1058C24.8174 17.3478 25.0875 17.5284 25.4157 17.6477C25.7471 17.7637 26.11 17.8217 26.5044 17.8217C26.9386 17.8217 27.3248 17.7538 27.6628 17.6179C28.0042 17.4787 28.2727 17.2865 28.4682 17.0412C28.6638 16.7926 28.7615 16.5026 28.7615 16.1712C28.7615 15.8696 28.6754 15.6226 28.503 15.4304C28.334 15.2382 28.1036 15.0791 27.812 14.9531C27.5236 14.8272 27.1971 14.7161 26.8326 14.62L25.6294 14.2919C24.8141 14.0698 24.1678 13.7434 23.6905 13.3125C23.2166 12.8816 22.9796 12.3116 22.9796 11.6023C22.9796 11.0156 23.1387 10.5036 23.4569 10.0661C23.775 9.62855 24.2059 9.28883 24.7495 9.04688C25.293 8.80161 25.9062 8.67898 26.589 8.67898C27.2783 8.67898 27.8865 8.79995 28.4135 9.0419C28.9438 9.28385 29.3614 9.61695 29.6664 10.0412C29.9713 10.4621 30.1304 10.946 30.1436 11.4929H28.6621Z" fill="#555555"/>
<mask id="mask0_9_8762" style="mask-type:alpha" maskUnits="userSpaceOnUse" x="35" y="5" width="18" height="18">
<rect x="35" y="23" width="18" height="18" transform="rotate(-90 35 23)" fill="#D9D9D9"/>
</mask>
<g mask="url(#mask0_9_8762)">
<path d="M50.3498 11.6625L44.1998 17.8312C44.1248 17.8937 44.0528 17.9375 43.9838 17.9625C43.9153 17.9875 43.8436 18 43.7686 18C43.6936 18 43.6216 17.9875 43.5526 17.9625C43.4841 17.9375 43.4123 17.8937 43.3373 17.8312L37.1686 11.6437C37.0561 11.5437 36.9998 11.4187 36.9998 11.2687C36.9998 11.1187 37.0623 10.9875 37.1873 10.875C37.2998 10.7625 37.4341 10.7062 37.5901 10.7062C37.7466 10.7062 37.8748 10.7625 37.9748 10.875L43.7686 16.65L49.5623 10.8562C49.6748 10.7437 49.8028 10.6875 49.9463 10.6875C50.0903 10.6875 50.2248 10.75 50.3498 10.875C50.4623 10.9875 50.5186 11.1187 50.5186 11.2687C50.5186 11.4187 50.4623 11.55 50.3498 11.6625Z" fill="#555555"/>
</g>
<rect x="0.5" y="0.5" width="56" height="27" rx="3.5" stroke="#EAEAEA"/>
</svg>
