<svg width="26" height="26" viewBox="0 0 26 26" fill="none" xmlns="http://www.w3.org/2000/svg">
<path d="M3.16602 18.1338H15.9756C16.0579 18.1339 16.1394 18.1177 16.2154 18.0862C16.2914 18.0548 16.3605 18.0086 16.4187 17.9504C16.4769 17.8923 16.523 17.8232 16.5545 17.7471C16.586 17.6711 16.6021 17.5896 16.6021 17.5073V15.6353C16.6021 15.553 16.586 15.4715 16.5545 15.3954C16.523 15.3194 16.4769 15.2503 16.4187 15.1921C16.3605 15.1339 16.2914 15.0878 16.2154 15.0563C16.1394 15.0249 16.0579 15.0087 15.9756 15.0088H3.16602C3.08373 15.0087 3.00224 15.0249 2.9262 15.0563C2.85017 15.0878 2.78108 15.1339 2.7229 15.1921C2.66471 15.2503 2.61857 15.3194 2.58711 15.3954C2.55565 15.4715 2.53949 15.553 2.53955 15.6353V17.5073C2.53949 17.5896 2.55565 17.6711 2.58711 17.7471C2.61857 17.8232 2.66471 17.8923 2.7229 17.9504C2.78108 18.0086 2.85017 18.0548 2.9262 18.0862C3.00224 18.1177 3.08373 18.1339 3.16602 18.1338V18.1338ZM3.16602 5.63379H15.9756C16.0579 5.63385 16.1394 5.61769 16.2154 5.58623C16.2914 5.55477 16.3605 5.50863 16.4187 5.45044C16.4769 5.39226 16.523 5.32317 16.5545 5.24714C16.586 5.1711 16.6021 5.08961 16.6021 5.00732V3.13525C16.6021 3.05297 16.586 2.97148 16.5545 2.89544C16.523 2.81941 16.4769 2.75032 16.4187 2.69213C16.3605 2.63395 16.2914 2.58781 16.2154 2.55635C16.1394 2.52489 16.0579 2.50873 15.9756 2.50879H3.16602C3.08373 2.50873 3.00224 2.52489 2.9262 2.55635C2.85017 2.58781 2.78108 2.63395 2.7229 2.69213C2.66471 2.75032 2.61857 2.81941 2.58711 2.89544C2.55565 2.97148 2.53949 3.05297 2.53955 3.13525V5.00732C2.53949 5.08961 2.55565 5.1711 2.58711 5.24714C2.61857 5.32317 2.66471 5.39226 2.7229 5.45044C2.78108 5.50863 2.85017 5.55477 2.9262 5.58623C3.00224 5.61769 3.08373 5.63385 3.16602 5.63379V5.63379ZM23.6333 8.75879H3.3208C3.1136 8.75879 2.91489 8.8411 2.76837 8.98761C2.62186 9.13412 2.53955 9.33284 2.53955 9.54004V11.1025C2.53955 11.3097 2.62186 11.5085 2.76837 11.655C2.91489 11.8015 3.1136 11.8838 3.3208 11.8838H23.6333C23.8405 11.8838 24.0392 11.8015 24.1857 11.655C24.3322 11.5085 24.4146 11.3097 24.4146 11.1025V9.54004C24.4146 9.33284 24.3322 9.13412 24.1857 8.98761C24.0392 8.8411 23.8405 8.75879 23.6333 8.75879ZM23.6333 21.2588H3.3208C3.1136 21.2588 2.91489 21.3411 2.76837 21.4876C2.62186 21.6341 2.53955 21.8328 2.53955 22.04V23.6025C2.53955 23.8097 2.62186 24.0085 2.76837 24.155C2.91489 24.3015 3.1136 24.3838 3.3208 24.3838H23.6333C23.8405 24.3838 24.0392 24.3015 24.1857 24.155C24.3322 24.0085 24.4146 23.8097 24.4146 23.6025V22.04C24.4146 21.8328 24.3322 21.6341 24.1857 21.4876C24.0392 21.3411 23.8405 21.2588 23.6333 21.2588Z" fill="black"/>
</svg>
