<svg width="133" height="133" viewBox="0 0 133 133" fill="none" xmlns="http://www.w3.org/2000/svg">
<circle cx="67" cy="67" r="66" fill="#FFF0D1"/>
<circle cx="67" cy="67" r="62.5" stroke="black" stroke-opacity="0.05" stroke-width="7"/>
<path d="M74.8621 4.05743C65.1227 2.75315 55.2132 3.74519 45.9256 6.95428C36.6379 10.1634 28.2298 15.5005 21.373 22.5392C14.5162 29.5778 9.401 38.1229 6.43613 47.4913C3.47125 56.8597 2.73894 66.7918 4.29772 76.4938C5.85649 86.1958 9.66314 95.3986 15.4134 103.367C21.1637 111.335 28.6982 117.848 37.4147 122.384C46.1312 126.921 55.7881 129.355 65.6135 129.494C75.4389 129.632 85.1605 127.47 94.0012 123.181" stroke="#FEAA00" stroke-width="7"/>
<path d="M43.1591 79.3182C41.6439 79.3182 40.2879 79.0341 39.0909 78.4659C37.8939 77.8902 36.9432 77.1023 36.2386 76.1023C35.5417 75.1023 35.1705 73.9583 35.125 72.6705H39.2159C39.2917 73.625 39.7045 74.4053 40.4545 75.0114C41.2045 75.6098 42.1061 75.9091 43.1591 75.9091C43.9848 75.9091 44.7197 75.7197 45.3636 75.3409C46.0076 74.9621 46.5152 74.4356 46.8864 73.7614C47.2576 73.0871 47.4394 72.3182 47.4318 71.4545C47.4394 70.5758 47.2538 69.7955 46.875 69.1136C46.4962 68.4318 45.9773 67.8977 45.3182 67.5114C44.6591 67.1174 43.9015 66.9205 43.0455 66.9205C42.3485 66.9129 41.6629 67.0417 40.9886 67.3068C40.3144 67.572 39.7803 67.9205 39.3864 68.3523L35.5795 67.7273L36.7955 55.7273H50.2955V59.25H40.2841L39.6136 65.4205H39.75C40.1818 64.9129 40.7917 64.4924 41.5795 64.1591C42.3674 63.8182 43.2311 63.6477 44.1705 63.6477C45.5795 63.6477 46.8371 63.9811 47.9432 64.6477C49.0492 65.3068 49.9205 66.2159 50.5568 67.375C51.1932 68.5341 51.5114 69.8598 51.5114 71.3523C51.5114 72.8902 51.1553 74.2614 50.4432 75.4659C49.7386 76.6629 48.7576 77.6061 47.5 78.2955C46.25 78.9773 44.803 79.3182 43.1591 79.3182ZM63.0305 79.3182C61.3941 79.3182 59.9395 79.0379 58.6668 78.4773C57.4017 77.9167 56.4017 77.1364 55.6668 76.1364C54.932 75.1364 54.5418 73.9811 54.4964 72.6705H58.7691C58.807 73.2992 59.0153 73.8485 59.3941 74.3182C59.7729 74.7803 60.2767 75.1402 60.9055 75.3977C61.5342 75.6553 62.2388 75.7841 63.0191 75.7841C63.8524 75.7841 64.5911 75.6402 65.235 75.3523C65.8789 75.0568 66.3827 74.6477 66.7464 74.125C67.11 73.6023 67.288 73 67.2805 72.3182C67.288 71.6136 67.1062 70.9924 66.735 70.4545C66.3638 69.9167 65.8259 69.4962 65.1214 69.1932C64.4244 68.8902 63.5835 68.7386 62.5986 68.7386H60.5418V65.4886H62.5986C63.4092 65.4886 64.1176 65.3485 64.7236 65.0682C65.3373 64.7879 65.8183 64.3939 66.1668 63.8864C66.5153 63.3712 66.6858 62.7765 66.6782 62.1023C66.6858 61.4432 66.538 60.8712 66.235 60.3864C65.9395 59.8939 65.5191 59.5114 64.9736 59.2386C64.4358 58.9659 63.8032 58.8295 63.0759 58.8295C62.3638 58.8295 61.7047 58.9583 61.0986 59.2159C60.4926 59.4735 60.0039 59.8409 59.6327 60.3182C59.2615 60.7879 59.0645 61.3485 59.0418 62H54.985C55.0153 60.697 55.3903 59.553 56.11 58.5682C56.8373 57.5758 57.807 56.803 59.0191 56.25C60.2312 55.6894 61.5911 55.4091 63.0986 55.4091C64.6517 55.4091 66.0002 55.7008 67.1441 56.2841C68.2956 56.8598 69.1858 57.6364 69.8145 58.6136C70.4433 59.5909 70.7577 60.6705 70.7577 61.8523C70.7653 63.1629 70.3789 64.2614 69.5986 65.1477C68.8259 66.0341 67.8108 66.6136 66.5532 66.8864V67.0682C68.1895 67.2955 69.4433 67.9015 70.3145 68.8864C71.1933 69.8636 71.6289 71.0795 71.6214 72.5341C71.6214 73.8371 71.2502 75.0038 70.5077 76.0341C69.7729 77.0568 68.7577 77.8598 67.4623 78.4432C66.1744 79.0265 64.6971 79.3182 63.0305 79.3182ZM87.3251 74.6364V73.4091C87.3251 72.5076 87.5145 71.678 87.8933 70.9205C88.2797 70.1629 88.8403 69.553 89.5751 69.0909C90.31 68.6288 91.2001 68.3977 92.2456 68.3977C93.3213 68.3977 94.2228 68.6288 94.9501 69.0909C95.6774 69.5455 96.2266 70.1515 96.5978 70.9091C96.9766 71.6667 97.166 72.5 97.166 73.4091V74.6364C97.166 75.5379 96.9766 76.3674 96.5978 77.125C96.2191 77.8826 95.6622 78.4924 94.9274 78.9545C94.2001 79.4167 93.3062 79.6477 92.2456 79.6477C91.185 79.6477 90.2872 79.4167 89.5524 78.9545C88.8175 78.4924 88.2607 77.8826 87.8819 77.125C87.5107 76.3674 87.3251 75.5379 87.3251 74.6364ZM90.291 73.4091V74.6364C90.291 75.2348 90.435 75.7841 90.7228 76.2841C91.0107 76.7841 91.5183 77.0341 92.2456 77.0341C92.9804 77.0341 93.4842 76.7879 93.7569 76.2955C94.0372 75.7955 94.1774 75.2424 94.1774 74.6364V73.4091C94.1774 72.803 94.0448 72.25 93.7797 71.75C93.5145 71.2424 93.0031 70.9886 92.2456 70.9886C91.5334 70.9886 91.0297 71.2424 90.7342 71.75C90.4388 72.25 90.291 72.803 90.291 73.4091ZM75.4956 61.3182V60.0909C75.4956 59.1818 75.6888 58.3485 76.0751 57.5909C76.4615 56.8333 77.0221 56.2273 77.7569 55.7727C78.4918 55.3106 79.3819 55.0795 80.4274 55.0795C81.4956 55.0795 82.3933 55.3106 83.1206 55.7727C83.8554 56.2273 84.4084 56.8333 84.7797 57.5909C85.1509 58.3485 85.3365 59.1818 85.3365 60.0909V61.3182C85.3365 62.2273 85.1471 63.0606 84.7683 63.8182C84.3971 64.5682 83.8441 65.1705 83.1092 65.625C82.3744 66.0795 81.4804 66.3068 80.4274 66.3068C79.3592 66.3068 78.4577 66.0795 77.7228 65.625C76.9956 65.1705 76.4425 64.5644 76.0638 63.8068C75.685 63.0492 75.4956 62.2197 75.4956 61.3182ZM78.4842 60.0909V61.3182C78.4842 61.9242 78.6244 62.4773 78.9047 62.9773C79.1925 63.4697 79.7001 63.7159 80.4274 63.7159C81.1547 63.7159 81.6547 63.4697 81.9274 62.9773C82.2077 62.4773 82.3478 61.9242 82.3478 61.3182V60.0909C82.3478 59.4848 82.2153 58.9318 81.9501 58.4318C81.685 57.9242 81.1774 57.6705 80.4274 57.6705C79.7077 57.6705 79.2039 57.9242 78.916 58.4318C78.6281 58.9394 78.4842 59.4924 78.4842 60.0909ZM76.791 79L92.791 55.7273H95.6319L79.6319 79H76.791Z" fill="#101828"/>
</svg>
