<svg width="26" height="26" viewBox="0 0 26 26" fill="none" xmlns="http://www.w3.org/2000/svg">
<path d="M16.6448 13.0249L21.531 8.13867C22.1306 7.53906 22.1306 6.56689 21.531 5.9668L20.4451 4.88086C19.8455 4.28125 18.8733 4.28125 18.2732 4.88086L13.387 9.76709L8.50073 4.88086C7.90112 4.28125 6.92896 4.28125 6.32886 4.88086L5.24292 5.9668C4.64331 6.56641 4.64331 7.53857 5.24292 8.13867L10.1292 13.0249L5.24292 17.9111C4.64331 18.5107 4.64331 19.4829 5.24292 20.083L6.32886 21.1689C6.92847 21.7686 7.90112 21.7686 8.50073 21.1689L13.387 16.2827L18.2732 21.1689C18.8728 21.7686 19.8455 21.7686 20.4451 21.1689L21.531 20.083C22.1306 19.4834 22.1306 18.5112 21.531 17.9111L16.6448 13.0249Z" fill="black"/>
</svg>
